<svg height="496pt" viewBox="0 0 496 496" width="496pt" xmlns="http://www.w3.org/2000/svg"><g fill="#f0bc5e"><path d="m248 208c0-49.199219 29.632812-91.425781 72-109.953125v-98.046875h-144v98.046875c42.367188 18.527344 72 60.753906 72 109.953125zm0 0"/><path d="m24 267.695312v228.304688h80v-170.40625c-34.246094-6.953125-63.113281-28.546875-80-57.898438zm0 0"/><path d="m392 325.59375v170.40625h80v-228.304688c-16.886719 29.351563-45.753906 50.945313-80 57.898438zm0 0"/></g><path d="m496 208c0-70.574219-57.425781-128-128-128-16.976562 0-33.160156 3.390625-48 9.425781v-25.425781h-16v33.320312c-5.609375 3.253907-10.96875 6.878907-16 10.917969v-60.238281h-16v75.625c-6.089844 6.917969-11.503906 14.429688-16 22.550781v-146.175781h-16v146.167969c-4.496094-8.121094-9.910156-15.632813-16-22.550781v-75.617188h-16v60.238281c-5.03125-4.039062-10.390625-7.664062-16-10.917969v-33.320312h-16v25.425781c-14.839844-6.035156-31.023438-9.425781-48-9.425781-70.574219 0-128 57.425781-128 128 0 27.726562 8.960938 53.351562 24 74.335938v109.664062h16v-91.289062c4.992188 4.738281 10.296875 9.144531 16 13.042968v110.246094h16v-101.078125c5.160156 2.527344 10.480469 4.765625 16 6.589844v134.488281h16v-130.335938c7.785156 1.488282 15.792969 2.335938 24 2.335938 1.542969 0 3.089844-.023438 4.625-.078125l-.5625-15.992187c-1.351562.046874-2.703125.070312-4.0625.070312-59.054688 0-107.464844-45.976562-111.59375-104h44.546875l16.535156-33.078125 24.757813 99.015625 34.019531-85.042969 23.183594 54.105469 21.496093-43h59.054688c0 10.167969-1.367188 20.257812-4.054688 29.976562l8.167969 2.253907c.054688.203125.085938.410156.144531.609375l1.054688-.28125 6.0625 1.679687c.320312-1.160156.554688-2.335937.839844-3.503906l7.511718-1.980469c-2.480468-9.320312-3.726562-18.992187-3.726562-28.753906 0-61.761719 50.238281-112 112-112s112 50.238281 112 112-50.238281 112-112 112c-1.375 0-2.742188-.023438-4.105469-.070312l-.558593 15.992187c1.542968.054687 3.105468.078125 4.664062.078125 8.207031 0 16.214844-.847656 24-2.335938v130.335938h16v-134.488281c5.519531-1.824219 10.839844-4.0625 16-6.582031v101.070312h16v-110.257812c5.703125-3.894532 11.007812-8.292969 16-13.039063v91.296875h16v-109.664062c15.039062-20.984376 24-46.609376 24-74.335938zm-324.945312-16-10.496094 21-24.816406-57.894531-29.980469 74.957031-23.242188-92.984375-31.464843 62.921875h-34.648438c4.128906-58.023438 52.539062-104 111.59375-104 56.3125 0 102.921875 41.816406 110.71875 96zm0 0"/><path d="m248 488c-70.574219 0-128-57.425781-128-128s57.425781-128 128-128 128 57.425781 128 128-57.425781 128-128 128zm0 0" fill="#f0bc5e"/><path d="m425.617188 208-57.617188-86.425781-57.617188 86.425781 57.617188 86.425781zm-49.617188 21.769531 20.40625-6.800781-20.40625 30.605469zm0-16.875v-50.480469l27.527344 41.296876zm-16 0-27.527344-9.175781 27.527344-41.292969zm0 16.875v23.804688l-20.40625-30.613281zm0 0"/><path d="m208 16h16v16h-16zm0 0"/><path d="m240 288v16h-24v112h24v16h16v-16c17.648438 0 32-14.351562 32-32 0-9.542969-4.199219-18.136719-10.855469-24 6.65625-5.863281 10.855469-14.457031 10.855469-24 0-17.648438-14.351562-32-32-32v-16zm16 112h-24v-32h24c8.824219 0 16 7.175781 16 16s-7.175781 16-16 16zm16-64c0 8.824219-7.175781 16-16 16h-24v-32h24c8.824219 0 16 7.175781 16 16zm0 0"/><path d="m248 264c-22.398438 0-44.207031 7.894531-61.425781 22.238281l10.25 12.289063c14.34375-11.941406 32.511719-18.527344 51.175781-18.527344 44.113281 0 80 35.886719 80 80 0 18.664062-6.585938 36.839844-18.527344 51.175781l12.28125 10.25c14.351563-17.210937 22.246094-39.019531 22.246094-61.425781 0-52.9375-43.0625-96-96-96zm0 0"/><path d="m248 440c-44.113281 0-80-35.886719-80-80 0-18.664062 6.585938-36.839844 18.527344-51.175781l-12.28125-10.25c-14.351563 17.210937-22.246094 39.019531-22.246094 61.425781 0 52.9375 43.0625 96 96 96 22.398438 0 44.207031-7.894531 61.425781-22.238281l-10.25-12.289063c-14.34375 11.941406-32.511719 18.527344-51.175781 18.527344zm0 0"/><path d="m272 16h16v16h-16zm0 0"/><path d="m24 408h16v16h-16zm0 0"/><path d="m56 440h16v16h-16zm0 0"/><path d="m88 480h16v16h-16zm0 0"/><path d="m456 408h16v16h-16zm0 0"/><path d="m424 440h16v16h-16zm0 0"/><path d="m392 480h16v16h-16zm0 0"/></svg>